<?xml version="1.0" standalone="no"?><!DOCTYPE svg PUBLIC "-//W3C//DTD SVG 1.1//EN" "http://www.w3.org/Graphics/SVG/1.1/DTD/svg11.dtd"><svg t="1640415458812" class="icon" viewBox="0 0 1024 1024" version="1.1" xmlns="http://www.w3.org/2000/svg" p-id="25834" xmlns:xlink="http://www.w3.org/1999/xlink" width="200" height="200"><defs><style type="text/css"></style></defs><path d="M2.152553 354.691459m78.721921 0l116.188637 0q78.721922 0 78.721922 78.721922l0 511.864697q0 78.721922-78.721922 78.721922l-116.188637 0q-78.721922 0-78.721921-78.721922l0-511.864697q0-78.721922 78.721921-78.721922Z" fill="#333333" p-id="25835"></path><path d="M362.883459 0m78.721922 0l140.789238 0q78.721922 0 78.721922 78.721922l0 866.556156q0 78.721922-78.721922 78.721922l-140.789238 0q-78.721922 0-78.721922-78.721922l0-866.556156q0-78.721922 78.721922-78.721922Z" fill="#333333" p-id="25836"></path><path d="M748.214967 198.67445m78.721922 0l116.188637 0q78.721922 0 78.721921 78.721922l0 667.881706q0 78.721922-78.721921 78.721922l-116.188637 0q-78.721922 0-78.721922-78.721922l0-667.881706q0-78.721922 78.721922-78.721922Z" fill="#333333" p-id="25837"></path></svg>