<?xml version="1.0" standalone="no"?><!DOCTYPE svg PUBLIC "-//W3C//DTD SVG 1.1//EN" "http://www.w3.org/Graphics/SVG/1.1/DTD/svg11.dtd"><svg t="1640523578607" class="icon" viewBox="0 0 1024 1024" version="1.1" xmlns="http://www.w3.org/2000/svg" p-id="19801" xmlns:xlink="http://www.w3.org/1999/xlink" width="200" height="200"><defs><style type="text/css"></style></defs><path d="M278.826667 128H896a42.666667 42.666667 0 0 1 42.666667 42.666667v682.666666a42.666667 42.666667 0 0 1-42.666667 42.666667H278.826667a42.666667 42.666667 0 0 1-35.498667-18.986667l-227.541333-341.333333a42.666667 42.666667 0 0 1 0-47.36l227.541333-341.333333A42.666667 42.666667 0 0 1 278.826667 128zM554.666667 451.669333l-120.661334-120.704-60.373333 60.373334L494.336 512l-120.704 120.661333 60.373333 60.373334L554.666667 572.330667l120.661333 120.704 60.373333-60.373334L614.997333 512l120.704-120.661333-60.373333-60.373334L554.666667 451.669333z" p-id="19802"></path></svg>