<?xml version="1.0" standalone="no"?><!DOCTYPE svg PUBLIC "-//W3C//DTD SVG 1.1//EN" "http://www.w3.org/Graphics/SVG/1.1/DTD/svg11.dtd"><svg t="1640772437035" class="icon" viewBox="0 0 1024 1024" version="1.1" xmlns="http://www.w3.org/2000/svg" p-id="624" xmlns:xlink="http://www.w3.org/1999/xlink" width="200" height="200"><defs><style type="text/css"></style></defs><path d="M262.944 491.872c-0.512 0.992-1.344 1.82399999-1.792 2.848-8.8 18.304-5.92 40.70400001 9.664 55.424L624.064 884.256c19.264 18.208 49.632 17.344 67.872-1.88800001 18.208-19.264 17.376-49.63199999-1.888-67.87199999l-316.96-299.84L688.8 210.368c19.072-18.39999999 19.648-48.768 1.248-67.872-9.408-9.792-21.984-14.688-34.56-14.688-11.99999999 0-24 4.48-33.312 13.44l-350.048 337.376c-0.672 0.672-0.928 1.6-1.6 2.304-0.512 0.48-1.056 0.832-1.568 1.344-2.72 2.848-4.16 6.33600001-6.016 9.6z" p-id="625"></path></svg>