<?xml version="1.0" standalone="no"?><!DOCTYPE svg PUBLIC "-//W3C//DTD SVG 1.1//EN" "http://www.w3.org/Graphics/SVG/1.1/DTD/svg11.dtd"><svg t="1640419406059" class="icon" viewBox="0 0 1024 1024" version="1.1" xmlns="http://www.w3.org/2000/svg" p-id="41800" xmlns:xlink="http://www.w3.org/1999/xlink" width="200" height="200"><defs><style type="text/css"></style></defs><path d="M189 168.9h647.2c22.3 0 40.5-16.5 40.5-36.8s-18.2-36.9-40.5-36.9H189c-22.3 0-40.5 16.5-40.5 36.8 0 20.2 18.2 36.9 40.5 36.9z m243 332.6h0.2-0.2z m467.9-258.7h-777c-22.3 0-40.5 18.6-40.5 41.2v612.9c0 22.6 18.2 41.2 40.5 41.2h777c22.3 0 40.5-18.6 40.5-41.2v-613c0-22.8-18.2-41.1-40.5-41.1zM644.7 628c22.3 0 40.5 16.5 40.5 36.8 0 20.2-18.2 36.8-40.5 36.8h-97v89.1c0 22.6-16.4 41.2-36.3 41.2s-36.3-18.6-36.3-41.2v-88.9h-96.8c-22.3 0-40.5-16.5-40.5-36.8 0-20.2 18.2-36.8 40.5-36.8h96.8v-53h-96.8c-22.3 0-40.5-16.5-40.5-36.8 0-20.2 18.2-36.8 40.5-36.8H432l-19.9-38.5-23.4-45.5c-10.3-20.1-4.4-44 13.3-53.5 17.7-9.4 40.7-0.7 50.9 19.2l18.9 36.6c0.3 0.5 0.7 1.2 1 1.7l19.4 37.6h0.2l19.7 38.1 19.7-38.1h0.2l19.4-37.6c0.3-0.7 0.7-1.2 1-1.7l18.9-36.6c10.3-20.1 33.2-28.7 50.9-19.2 17.7 9.4 23.6 33.4 13.3 53.5l-23.4 45.5-19.9 38.5h-0.2 52.8c22.3 0 40.5 16.5 40.5 36.8 0 20.2-18.2 36.8-40.5 36.8h-97.2V628h97.1z m0 0" p-id="41801"></path></svg>