<?xml version="1.0" standalone="no"?><!DOCTYPE svg PUBLIC "-//W3C//DTD SVG 1.1//EN" "http://www.w3.org/Graphics/SVG/1.1/DTD/svg11.dtd"><svg t="1640415364536" class="icon" viewBox="0 0 1024 1024" version="1.1" xmlns="http://www.w3.org/2000/svg" p-id="14109" xmlns:xlink="http://www.w3.org/1999/xlink" width="200" height="200"><defs><style type="text/css"></style></defs><path d="M592.384 808.448L665.6 748.544 610.304 716.8z m22.016-95.232l56.832 31.744 74.752-121.856 45.056-73.216-43.008-24.064-13.824-7.68z m153.6-229.376a32.768 32.768 0 0 0-19.968 14.336l-9.728 16.384 56.832 31.744 9.728-16.384a30.72 30.72 0 0 0-11.776-43.008 34.304 34.304 0 0 0-28.672-3.584zM326.656 307.2a51.2 51.2 0 0 0-51.2 51.2v27.136a51.2 51.2 0 0 0 51.2 51.2h35.84a51.2 51.2 0 0 0 51.2-51.2V358.4a51.2 51.2 0 0 0-51.2-51.2z m217.6 345.6H300.032a30.208 30.208 0 0 0 0 59.392h244.224a30.208 30.208 0 0 0 0-59.392z m65.024-129.536h-307.2a30.208 30.208 0 0 0 0 59.392h307.2a30.208 30.208 0 0 0 0-59.392zM336.896 179.2h384a153.6 153.6 0 0 1 153.6 153.6V716.8a153.6 153.6 0 0 1-153.6 153.6h-384a153.6 153.6 0 0 1-153.6-153.6V332.8a153.6 153.6 0 0 1 153.6-153.6z" fill="" p-id="14110"></path></svg>