<?xml version="1.0" standalone="no"?><!DOCTYPE svg PUBLIC "-//W3C//DTD SVG 1.1//EN" "http://www.w3.org/Graphics/SVG/1.1/DTD/svg11.dtd"><svg t="1640415216182" class="icon" viewBox="0 0 1024 1024" version="1.1" xmlns="http://www.w3.org/2000/svg" p-id="2905" xmlns:xlink="http://www.w3.org/1999/xlink" width="200" height="200"><defs><style type="text/css"></style></defs><path d="M745.0624 123.1872H252.928c-60.1088 0-108.8512 48.7424-108.8512 108.8512v612.3008c0 67.6864 76.3904 107.2128 131.6352 68.1472l169.472-119.8592a108.80512 108.80512 0 0 1 128.3072 1.8944l146.7904 110.4896c54.9888 41.3696 133.632 2.1504 133.632-66.6624V232.0384c0-60.1088-48.7424-108.8512-108.8512-108.8512z m-118.6304 169.984H371.5584c-16.9472 0-30.72-13.7728-30.72-30.72s13.7728-30.72 30.72-30.72h254.9248c16.9472 0 30.72 13.7728 30.72 30.72s-13.7728 30.72-30.7712 30.72z" p-id="2906"></path></svg>